<svg xmlns="http://www.w3.org/2000/svg" viewBox="0 0 136 136">
  <defs>
    <linearGradient id="front" x1="126" y1="24" x2="30" y2="123" gradientUnits="userSpaceOnUse">
      <stop stop-color="#174D43"/>
      <stop offset="0.58" stop-color="#123A36"/>
      <stop offset="1" stop-color="#0A2133"/>
    </linearGradient>
    <linearGradient id="top" x1="124" y1="12" x2="12" y2="24" gradientUnits="userSpaceOnUse">
      <stop stop-color="#49BD78"/>
      <stop offset="1" stop-color="#1F725A"/>
    </linearGradient>
    <linearGradient id="side" x1="30" y1="20" x2="12" y2="118" gradientUnits="userSpaceOnUse">
      <stop stop-color="#14513F"/>
      <stop offset="1" stop-color="#071A29"/>
    </linearGradient>
    <radialGradient id="glow" cx="0.38" cy="0.22" r="0.85">
      <stop stop-color="#57D36B" stop-opacity="0.22"/>
      <stop offset="1" stop-color="#57D36B" stop-opacity="0"/>
    </radialGradient>
  </defs>
  <path d="M126 28L108 12H12L30 28Z" fill="url(#top)"/>
  <path d="M30 28L12 12V100L30 118Z" fill="url(#side)"/>
  <rect x="30" y="28" width="96" height="90" rx="8" fill="url(#front)"/>
  <rect x="30" y="28" width="96" height="90" rx="8" fill="url(#glow)"/>
  <path d="M38 36H118V110H38Z" fill="none" stroke="#FFFFFF" stroke-opacity="0.035"/>
  <path d="M126 28L108 12H12L30 28V118H126Z" fill="none" stroke="#57D36B" stroke-opacity="0.44"/>
  <path d="M30 28L12 12" stroke="#FFFFFF" stroke-opacity="0.18"/>
  <path d="M30 118L12 100" stroke="#000000" stroke-opacity="0.24"/>
</svg>
